<?xml version="1.0" encoding="utf-8"?>
<svg version="1.1" xmlns:xlink="http://www.w3.org/1999/xlink" width="25px" height="9px" xmlns="http://www.w3.org/2000/svg">
  <g transform="matrix(1 0 0 1 -345 -6 )">
    <path d="M 23.6842105263158 2.8077877662512  C 24.4472793522357 3.0330353118125  25 3.675045405696  25 4.45  C 25 5.224954594304  24.4472793522357 5.8669646881875  23.6842105263158 6.09221222558216  L 23.6842105263158 2.8077877662512  Z M 1.75438596491228 0  L 21.2719298245614 0  C 22.2543859649123 0  23.0263157894737 0.703999999999999  23.0263157894737 1.6  L 23.0263157894737 7.4  C 23.0263157894737 8.296  22.2543859649123 9  21.2719298245614 9  L 1.75438596491228 9  C 0.7719298245614 9  0 8.296  0 7.4  L 0 1.6  C 0 0.703999999999999  0.7719298245614 0  1.75438596491228 0  Z M 22.6973684210526 1.8  C 22.6973684210526 0.903999999999999  21.9254385964912 0.2  20.9429824561404 0.4  L 1.97368421052632 0.4  C 0.991228070175435 0.2  0.219298245614035 0.903999999999999  0.43859649122807 1.8  L 0.43859649122807 7.2  C 0.219298245614035 8.096  0.991228070175435 8.8  1.97368421052632 8.8  L 20.9429824561404 8.8  C 21.9254385964912 8.8  22.6973684210526 8.096  22.6973684210526 7.2  L 22.6973684210526 1.8  Z M 20.6140350877193 1.2  L 20.6140350877193 7.8  C 20.6140350877193 7.912  20.5175438596491 8  20.3947368421053 8  L 1.31578947368421 8  C 1.19298245614036 8  1.09649122807018 7.912  1.20614035087719 7.8  L 1.20614035087719 1.2  C 1.09649122807018 1.088  1.19298245614036 1  1.31578947368421 1  L 20.3947368421053 1  C 20.5175438596491 1  20.6140350877193 1.088  20.6140350877193 1.2  Z " fill-rule="nonzero" fill="#000000" stroke="none" transform="matrix(1 0 0 1 345 6 )" />
  </g>
</svg>