<svg t="1583930915846" class="icon" viewBox="0 0 1024 1024" version="1.1" xmlns="http://www.w3.org/2000/svg" p-id="7448" width="200" height="200"><path d="M512 1024C229.19 1024 0 794.81 0 512S229.19 0 512 0s512 229.19 512 512-229.19 512-512 512z m0-975.22C256.791 48.78 48.78 256.838 48.78 512c0 255.209 208.058 463.22 463.22 463.22 255.209 0 463.22-208.058 463.22-463.22 0-255.209-208.058-463.22-463.22-463.22z" p-id="7449" fill="#ffffff"></path><path d="M549.376 512L747.66 313.716c9.774-9.774 9.774-26.019 0-37.376l-1.583-1.629a25.507 25.507 0 0 0-35.793 0L512 474.624 313.716 276.34a25.507 25.507 0 0 0-35.793 0l-1.583 1.583c-9.774 9.774-9.774 26.065 0 37.422L474.624 512 276.34 710.284c-9.774 9.774-9.774 26.019 0 37.376l1.583 1.629c9.774 9.774 26.065 9.774 35.793 0L512 549.376 710.284 747.66c9.774 9.774 26.019 9.774 35.793 0l1.583-1.583c9.774-9.774 9.774-26.065 0-37.422L549.376 512z" p-id="7450" fill="#ffffff"></path></svg>