<?xml version="1.0" encoding="utf-8"?>
<svg version="1.1" xmlns:xlink="http://www.w3.org/1999/xlink" width="271px" height="40px" xmlns="http://www.w3.org/2000/svg">
  <defs>
    <mask fill="white" id="clip220">
      <path d="M 0 40  L 0 0  L 81 0  L 271 0  L 271 40  L 191 40  L 0 40  Z " fill-rule="evenodd" />
    </mask>
  </defs>
  <g transform="matrix(1 0 0 1 -443 -92 )">
    <path d="M 0 40  L 0 0  L 81 0  L 271 0  L 271 40  L 191 40  L 0 40  Z " fill-rule="nonzero" fill="#ffffff" stroke="none" fill-opacity="0" transform="matrix(1 0 0 1 443 92 )" />
    <path d="M 0 40  L 0 0  L 81 0  L 271 0  L 271 40  L 191 40  L 0 40  Z " stroke-width="2" stroke="#797979" fill="none" transform="matrix(1 0 0 1 443 92 )" mask="url(#clip220)" />
  </g>
</svg>