<svg t="1592381938800" class="icon" viewBox="0 0 1024 1024" version="1.1" xmlns="http://www.w3.org/2000/svg" p-id="24812" width="32" height="32"><path d="M315.076923 0h393.846154a315.076923 315.076923 0 0 1 315.076923 315.076923v393.846154a315.076923 315.076923 0 0 1-315.076923 315.076923H315.076923a315.076923 315.076923 0 0 1-315.076923-315.076923V315.076923a315.076923 315.076923 0 0 1 315.076923-315.076923z m105.550769 617.550769c-14.178462 47.261538-33.870769 85.858462-60.652307 115.790769-31.507692 32.295385-77.981538 62.227692-139.421539 89.009231l35.446154 44.898462c67.741538-32.295385 118.153846-68.529231 152.024615-107.913846 27.569231-35.446154 49.624615-82.707692 65.378462-141.784616h192.984615c-3.150769 80.344615-10.24 132.332308-21.267692 157.538462-11.027692 23.630769-33.083077 35.446154-66.166154 35.446154s-67.741538-0.787692-104.763077-2.363077l14.966154 52.775384h117.366154c32.295385-1.575385 55.926154-11.027692 70.892308-27.56923 14.966154-17.329231 25.993846-48.049231 32.295384-92.16 5.513846-43.323077 9.452308-100.036923 11.815385-169.353847 33.083077 26.781538 71.68 53.563077 117.366154 79.556923l36.233846-46.473846c-91.372308-42.535385-156.750769-91.372308-196.923077-144.935384h172.504615v-51.987693h-391.483077c15.753846-26.781538 30.72-55.926154 43.323077-86.646153h304.836923V270.966154h-123.667692c26.781538-33.083077 48.836923-70.892308 66.953846-115.003077l-47.261538-17.329231c-16.541538 41.747692-37.021538 77.981538-62.227693 109.489231l40.172308 22.843077h-159.901538c12.603077-39.384615 22.843077-81.92 30.72-127.606154l-55.926154-7.089231c-7.876923 47.261538-18.116923 92.16-32.295385 134.695385H216.615385v50.412308h226.855384c-13.390769 29.932308-29.144615 59.076923-47.261538 86.646153H173.292308v51.987693h182.744615c-54.350769 61.44-123.667692 110.276923-207.163077 146.510769l31.507692 48.049231c45.686154-22.055385 89.009231-48.836923 129.181539-79.556923v42.535384h111.064615z m3.15077-157.538461h196.923076c22.055385 36.233846 52.775385 70.892308 93.735385 105.550769H322.166154c37.809231-30.72 71.68-66.166154 101.612308-105.550769z m-94.523077-316.652308l-48.836923 15.753846c22.055385 32.295385 41.747692 69.316923 60.652307 111.064616l45.686154-21.267693c-15.753846-37.809231-35.446154-72.467692-57.501538-105.550769z" fill="#FF8C5E" p-id="24813"></path></svg>