<?xml version="1.0" encoding="utf-8"?>
<svg version="1.1" xmlns:xlink="http://www.w3.org/1999/xlink" width="18px" height="10px" preserveAspectRatio="xMinYMid meet" viewBox="455 114  18 8" xmlns="http://www.w3.org/2000/svg">
  <path d="M 83 94  L 145 94  A 5 5 0 0 1 150 99 L 150 155  A 5 5 0 0 0 155 160 L 455 160  A 5 5 0 0 0 460 155 L 460 123  A 5 5 0 0 1 465 118 L 471 118  " stroke-width="2" stroke="#3333ff" fill="none" />
  <path d="M 465.892893218813 113.707106781187  L 470.185786437627 118  L 465.892893218813 122.292893218813  L 467.307106781187 123.707106781187  L 472.307106781187 118.707106781187  L 473.014213562373 118  L 472.307106781187 117.292893218813  L 467.307106781187 112.292893218813  L 465.892893218813 113.707106781187  Z " fill-rule="nonzero" fill="#3333ff" stroke="none" />
</svg>