<svg t="1592271759667" class="icon" viewBox="0 0 1024 1024" version="1.1" xmlns="http://www.w3.org/2000/svg" p-id="19559" width="128" height="128"><path d="M55.594667 63.829333h36.4032v36.4032H55.594667V63.829333z m36.4032 0h36.4032v36.4032h-36.4032V63.829333z m36.394666 0h36.4032v36.4032h-36.4032V63.829333z m36.3008 0h36.4032v36.4032H164.693333V63.829333z m36.4032 0h36.4032v36.4032h-36.4032V63.829333z m36.292267 0h36.394667v36.4032h-36.394667V63.829333z m36.394667 0h36.4032v36.4032h-36.4032V63.829333z m72.704 0h36.4032v36.4032h-36.4032V63.829333z m72.695466 0h36.4032v36.4032h-36.4032V63.829333z m36.4032 0h36.4032v36.4032h-36.4032V63.829333z m72.695467 0h36.4032v36.4032h-36.4032V63.829333z m72.695467 0h36.4032v36.4032h-36.4032V63.829333z m109.090133 0h36.4032v36.4032h-36.4032V63.829333z m36.4032 0h36.4032v36.4032h-36.4032V63.829333z m36.3008 0h36.4032v36.4032h-36.4032V63.829333z m36.394667 0h36.4032v36.4032h-36.4032V63.829333z m36.4032 0h36.4032v36.4032h-36.4032V63.829333z m36.3008 0h36.4032v36.4032h-36.4032V63.829333z m36.394666 0h36.4032v36.4032h-36.4032V63.829333zM55.594667 100.1216h36.4032v36.4032H55.594667v-36.4032z m218.1888 0h36.4032v36.4032h-36.4032v-36.4032z m72.704 0h36.4032v36.4032h-36.4032v-36.4032z m218.197333 0h36.4032v36.4032h-36.4032v-36.4032z m145.3824 0h36.4032v36.4032h-36.4032v-36.4032z m218.197333 0h36.4032v36.4032h-36.4032v-36.4032zM55.594667 136.5248h36.4032v36.4032H55.594667v-36.4032z m72.797866 0h36.4032v36.4032h-36.4032v-36.4032z m36.3008 0h36.4032v36.4032H164.693333v-36.4032z m36.4032 0h36.4032v36.4032h-36.4032v-36.4032z m72.686934 0h36.4032v36.4032h-36.4032v-36.4032z m72.704 0h36.4032v36.4032h-36.4032v-36.4032z m36.394666 0h36.4032v36.4032h-36.4032v-36.4032z m36.3008 0h36.4032v36.4032h-36.4032v-36.4032z m36.4032 0h36.4032v36.4032h-36.4032v-36.4032z m109.098667 0h36.4032v36.4032h-36.4032v-36.4032z m36.292267 0h36.4032v36.4032h-36.4032v-36.4032z m109.090133 0h36.4032v36.4032h-36.4032v-36.4032z m72.704 0h36.4032v36.4032h-36.4032v-36.4032z m36.394667 0h36.4032v36.4032h-36.4032v-36.4032z m36.4032 0h36.4032v36.4032h-36.4032v-36.4032z m72.695466 0h36.4032v36.4032h-36.4032v-36.4032zM55.594667 172.8256h36.4032v36.4032H55.594667v-36.4032z m72.797866 0h36.4032v36.4032h-36.4032v-36.4032z m36.3008 0h36.4032v36.4032H164.693333v-36.4032z m36.4032 0h36.4032v36.4032h-36.4032v-36.4032z m72.686934 0h36.4032v36.4032h-36.4032v-36.4032z m72.704 0h36.4032v36.4032h-36.4032v-36.4032z m109.098666 0h36.4032v36.4032h-36.4032v-36.4032z m72.695467 0h36.4032v36.4032h-36.4032v-36.4032z m72.695467 0h36.4032v36.4032h-36.4032v-36.4032z m36.4032 0h36.4032v36.4032h-36.4032v-36.4032z m72.686933 0h36.4032v36.4032h-36.4032v-36.4032z m72.704 0h36.4032v36.4032h-36.4032v-36.4032z m36.394667 0h36.4032v36.4032h-36.4032v-36.4032z m36.4032 0h36.4032v36.4032h-36.4032v-36.4032z m72.695466 0h36.4032v36.4032h-36.4032v-36.4032zM55.594667 209.220267h36.4032v36.4032H55.594667v-36.4032z m72.797866 0h36.4032v36.4032h-36.4032v-36.4032z m36.3008 0h36.4032v36.4032H164.693333v-36.4032z m36.4032 0h36.4032v36.4032h-36.4032v-36.4032z m72.686934 0h36.4032v36.4032h-36.4032v-36.4032z m109.098666 0h36.4032v36.4032h-36.4032v-36.4032z m72.704 0h36.4032v36.4032h-36.4032v-36.4032z m72.695467 0h36.4032v36.4032h-36.4032v-36.4032z m72.695467 0h36.4032v36.4032h-36.4032v-36.4032z m36.4032 0h36.4032v36.4032h-36.4032v-36.4032z m72.686933 0h36.4032v36.4032h-36.4032v-36.4032z m72.704 0h36.4032v36.4032h-36.4032v-36.4032z m36.394667 0h36.4032v36.4032h-36.4032v-36.4032z m36.4032 0h36.4032v36.4032h-36.4032v-36.4032z m72.695466 0h36.4032v36.4032h-36.4032v-36.4032zM55.594667 245.521067h36.4032v36.4032H55.594667v-36.4032z m218.1888 0h36.4032v36.4032h-36.4032v-36.4032z m72.704 0h36.4032v36.4032h-36.4032v-36.4032z m36.394666 0h36.4032v36.4032h-36.4032v-36.4032z m109.098667 0h36.4032v36.4032h-36.4032v-36.4032z m145.399467 0h36.4032v36.4032h-36.4032v-36.4032z m72.686933 0h36.4032v36.4032h-36.4032v-36.4032z m218.197333 0h36.4032v36.4032h-36.4032v-36.4032zM55.594667 281.924267h36.4032v36.394666H55.594667v-36.394666z m36.4032 0h36.4032v36.394666h-36.4032v-36.394666z m36.394666 0h36.4032v36.394666h-36.4032v-36.394666z m36.3008 0h36.4032v36.394666H164.693333v-36.394666z m36.4032 0h36.4032v36.394666h-36.4032v-36.394666z m36.292267 0h36.394667v36.394666h-36.394667v-36.394666z m36.394667 0h36.4032v36.394666h-36.4032v-36.394666z m72.704 0h36.4032v36.394666h-36.4032v-36.394666z m72.695466 0h36.4032v36.394666h-36.4032v-36.394666z m72.797867 0h36.4032v36.394666h-36.4032v-36.394666z m72.704 0h36.4032v36.394666h-36.4032v-36.394666z m72.695467 0h36.4032v36.394666h-36.4032v-36.394666z m72.686933 0h36.4032v36.394666h-36.4032v-36.394666z m36.4032 0h36.4032v36.394666h-36.4032v-36.394666z m36.3008 0h36.4032v36.394666h-36.4032v-36.394666z m36.394667 0h36.4032v36.394666h-36.4032v-36.394666z m36.4032 0h36.4032v36.394666h-36.4032v-36.394666z m36.3008 0h36.4032v36.394666h-36.4032v-36.394666z m36.394666 0h36.4032v36.394666h-36.4032v-36.394666z m-545.3824 36.394666h36.4032v36.4032h-36.4032v-36.4032z m109.098667 0h36.4032v36.4032h-36.4032v-36.4032zM55.594667 354.6112h36.4032v36.4032H55.594667v-36.4032z m36.4032 0h36.4032v36.4032h-36.4032v-36.4032z m109.098666 0h36.4032v36.4032h-36.4032v-36.4032z m36.292267 0h36.394667v36.4032h-36.394667v-36.4032z m36.394667 0h36.4032v36.4032h-36.4032v-36.4032z m181.802666 0h36.4032v36.4032h-36.4032v-36.4032z m36.394667 0h36.4032v36.4032h-36.4032v-36.4032z m72.704 0h36.4032v36.4032h-36.4032v-36.4032z m36.292267 0h36.4032v36.4032h-36.4032v-36.4032z m145.493333 0h36.4032v36.4032h-36.4032v-36.4032z m72.695467 0h36.4032v36.4032h-36.4032v-36.4032z m36.4032 0h36.4032v36.4032h-36.4032v-36.4032z m36.3008 0h36.4032v36.4032h-36.4032v-36.4032z m36.394666 0h36.4032v36.4032h-36.4032v-36.4032zM55.594667 391.0144h36.4032v36.4032H55.594667v-36.4032z m36.4032 0h36.4032v36.4032h-36.4032v-36.4032z m36.394666 0h36.4032v36.4032h-36.4032v-36.4032z m36.3008 0h36.4032v36.4032H164.693333v-36.4032z m72.695467 0h36.394667v36.4032h-36.394667v-36.4032z m72.695467 0h36.4032v36.4032h-36.4032v-36.4032z m72.797866 0h36.4032v36.4032h-36.4032v-36.4032z m72.704 0h36.4032v36.4032h-36.4032v-36.4032z m36.394667 0h36.4032v36.4032h-36.4032v-36.4032z m36.3008 0h36.4032v36.4032h-36.4032v-36.4032z m72.695467 0h36.4032v36.4032h-36.4032v-36.4032z m36.4032 0h36.4032v36.4032h-36.4032v-36.4032z m36.4032 0h36.394666v36.4032h-36.394666v-36.4032z m108.987733 0h36.4032v36.4032h-36.4032v-36.4032z m36.394667 0h36.4032v36.4032h-36.4032v-36.4032z m72.704 0h36.4032v36.4032h-36.4032v-36.4032z m-799.872 36.3008h36.4032v36.4032h-36.4032v-36.4032z m36.394666 0h36.4032v36.4032h-36.4032v-36.4032z m36.3008 0h36.4032v36.4032H164.693333v-36.4032z m72.695467 0h36.394667v36.4032h-36.394667v-36.4032z m36.394667 0h36.4032v36.4032h-36.4032v-36.4032z m36.3008 0h36.4032v36.4032h-36.4032v-36.4032z m145.501866 0h36.4032v36.4032h-36.4032v-36.4032z m145.390934 0h36.4032v36.4032h-36.4032v-36.4032z m145.493333 0h36.4032v36.4032h-36.4032v-36.4032z m36.3008 0h36.4032v36.4032h-36.4032v-36.4032z m36.394667 0h36.4032v36.4032h-36.4032v-36.4032z m36.4032 0h36.4032v36.4032h-36.4032v-36.4032zM55.594667 463.709867h36.4032v36.4032H55.594667v-36.4032z m36.4032 0h36.4032v36.4032h-36.4032v-36.4032z m72.695466 0h36.4032v36.4032H164.693333v-36.4032z m145.390934 0h36.4032v36.4032h-36.4032v-36.4032z m36.4032 0h36.4032v36.4032h-36.4032v-36.4032z m72.695466 0h36.4032v36.4032h-36.4032v-36.4032z m36.4032 0h36.4032v36.4032h-36.4032v-36.4032z m36.394667 0h36.4032v36.4032h-36.4032v-36.4032z m218.0864 0h36.4032v36.4032h-36.4032v-36.4032z m36.4032 0h36.4032v36.4032h-36.4032v-36.4032z m109.098667 0h36.4032v36.4032h-36.4032v-36.4032z m36.3008 0h36.4032v36.4032h-36.4032v-36.4032zM55.594667 500.113067h36.4032v36.4032H55.594667v-36.4032z m36.4032 0h36.4032v36.4032h-36.4032v-36.4032z m36.394666 0h36.4032v36.4032h-36.4032v-36.4032z m108.996267 0h36.394667v36.4032h-36.394667v-36.4032z m36.394667 0h36.4032v36.4032h-36.4032v-36.4032z m36.3008 0h36.4032v36.4032h-36.4032v-36.4032z m109.098666 0h36.4032v36.4032h-36.4032v-36.4032z m145.501867 0h36.4032v36.4032h-36.4032v-36.4032z m36.292267 0h36.4032v36.4032h-36.4032v-36.4032z m109.090133 0h36.4032v36.4032h-36.4032v-36.4032z m109.098667 0h36.4032v36.4032h-36.4032v-36.4032z m36.4032 0h36.4032v36.4032h-36.4032v-36.4032z m36.3008 0h36.4032v36.4032h-36.4032v-36.4032z m36.394666 0h36.4032v36.4032h-36.4032v-36.4032zM55.594667 536.413867h36.4032v36.4032H55.594667v-36.4032z m181.794133 0h36.394667v36.4032h-36.394667v-36.4032z m72.695467 0h36.4032v36.4032h-36.4032v-36.4032z m72.797866 0h36.4032v36.4032h-36.4032v-36.4032z m72.704 0h36.4032v36.4032h-36.4032v-36.4032z m109.098667 0h36.4032v36.4032h-36.4032v-36.4032z m36.292267 0h36.4032v36.4032h-36.4032v-36.4032z m36.4032 0h36.4032v36.4032h-36.4032v-36.4032z m145.390933 0h36.4032v36.4032h-36.4032v-36.4032z m109.098667 0h36.4032v36.4032h-36.4032v-36.4032z m-763.477334 36.394666h36.4032v36.4032h-36.4032v-36.4032z m36.3008 0h36.4032v36.4032H164.693333v-36.4032z m36.4032 0h36.4032v36.4032h-36.4032v-36.4032z m72.686934 0h36.4032v36.4032h-36.4032v-36.4032z m109.098666 0h36.4032v36.4032h-36.4032v-36.4032z m36.3008 0h36.4032v36.4032h-36.4032v-36.4032z m36.4032 0h36.4032v36.4032h-36.4032v-36.4032z m36.394667 0h36.4032v36.4032h-36.4032v-36.4032z m36.3008 0h36.4032v36.4032h-36.4032v-36.4032z m36.4032 0h36.4032v36.4032h-36.4032v-36.4032z m36.292267 0h36.4032v36.4032h-36.4032v-36.4032z m36.4032 0h36.4032v36.4032h-36.4032v-36.4032z m72.686933 0h36.4032v36.4032h-36.4032v-36.4032z m36.4032 0h36.4032v36.4032h-36.4032v-36.4032z m36.3008 0h36.4032v36.4032h-36.4032v-36.4032z m36.394667 0h36.4032v36.4032h-36.4032v-36.4032z m36.4032 0h36.4032v36.4032h-36.4032v-36.4032z m-654.472534 36.4032h36.4032v36.4032h-36.4032v-36.4032z m36.292267 0h36.394667v36.4032h-36.394667v-36.4032z m72.695467 0h36.4032v36.4032h-36.4032v-36.4032z m36.4032 0h36.4032v36.4032h-36.4032v-36.4032z m109.098666 0h36.4032v36.4032h-36.4032v-36.4032z m218.197334 0h36.394666v36.4032h-36.394666v-36.4032z m36.283733 0h36.4032v36.4032h-36.4032v-36.4032z m36.4032 0h36.4032v36.4032h-36.4032v-36.4032z m72.695467 0h36.4032v36.4032h-36.4032v-36.4032z m36.4032 0h36.4032v36.4032h-36.4032v-36.4032z m36.3008 0h36.4032v36.4032h-36.4032v-36.4032zM55.594667 645.512533h36.4032v36.4032H55.594667v-36.4032z m36.4032 0h36.4032v36.4032h-36.4032v-36.4032z m72.695466 0h36.4032v36.4032H164.693333v-36.4032z m36.4032 0h36.4032v36.4032h-36.4032v-36.4032z m36.292267 0h36.394667v36.4032h-36.394667v-36.4032z m36.394667 0h36.4032v36.4032h-36.4032v-36.4032z m145.399466 0h36.4032v36.4032h-36.4032v-36.4032z m36.4032 0h36.4032v36.4032h-36.4032v-36.4032z m181.794134 0h36.4032v36.4032h-36.4032v-36.4032z m36.4032 0h36.394666v36.4032h-36.394666v-36.4032z m36.283733 0h36.4032v36.4032h-36.4032v-36.4032z m36.4032 0h36.4032v36.4032h-36.4032v-36.4032z m36.3008 0h36.4032v36.4032h-36.4032v-36.4032z m36.394667 0h36.4032v36.4032h-36.4032v-36.4032z m36.4032 0h36.4032v36.4032h-36.4032v-36.4032z m-509.0816 36.394667h36.4032v36.394667h-36.4032v-36.394667z m72.695466 0h36.4032v36.394667h-36.4032v-36.394667z m36.4032 0h36.4032v36.394667h-36.4032v-36.394667z m72.695467 0h36.4032v36.394667h-36.4032v-36.394667z m36.4032 0h36.4032v36.394667h-36.4032v-36.394667z m72.695467 0h36.4032v36.394667h-36.4032v-36.394667z m145.390933 0h36.4032v36.394667h-36.4032v-36.394667z m72.797867 0h36.4032v36.394667h-36.4032v-36.394667zM55.594667 718.208h36.4032v36.394667H55.594667v-36.394667z m36.4032 0h36.4032v36.394667h-36.4032v-36.394667z m36.394666 0h36.4032v36.394667h-36.4032v-36.394667z m36.3008 0h36.4032v36.394667H164.693333v-36.394667z m36.4032 0h36.4032v36.394667h-36.4032v-36.394667z m36.292267 0h36.394667v36.394667h-36.394667v-36.394667z m36.394667 0h36.4032v36.394667h-36.4032v-36.394667z m181.802666 0h36.4032v36.394667h-36.4032v-36.394667z m72.695467 0h36.4032v36.394667h-36.4032v-36.394667z m109.098667 0h36.4032v36.394667h-36.4032v-36.394667z m72.686933 0h36.4032v36.394667h-36.4032v-36.394667z m72.704 0h36.4032v36.394667h-36.4032v-36.394667z m36.394667 0h36.4032v36.394667h-36.4032v-36.394667zM55.594667 754.602667h36.4032v36.4032H55.594667V754.602667z m218.1888 0h36.4032v36.4032h-36.4032V754.602667z m72.704 0h36.4032v36.4032h-36.4032V754.602667z m36.394666 0h36.4032v36.4032h-36.4032V754.602667z m109.098667 0h36.4032v36.4032h-36.4032V754.602667z m72.704 0h36.4032v36.4032h-36.4032V754.602667z m72.695467 0h36.4032v36.4032h-36.4032V754.602667z m145.390933 0h36.4032v36.4032h-36.4032V754.602667z m36.394667 0h36.4032v36.4032h-36.4032V754.602667z m36.4032 0h36.4032v36.4032h-36.4032V754.602667z m72.695466 0h36.4032v36.4032h-36.4032V754.602667zM55.594667 791.005867h36.4032v36.4032H55.594667v-36.4032z m72.797866 0h36.4032v36.4032h-36.4032v-36.4032z m36.3008 0h36.4032v36.4032H164.693333v-36.4032z m36.4032 0h36.4032v36.4032h-36.4032v-36.4032z m72.686934 0h36.4032v36.4032h-36.4032v-36.4032z m72.704 0h36.4032v36.4032h-36.4032v-36.4032z m72.695466 0h36.4032v36.4032h-36.4032v-36.4032z m36.4032 0h36.4032v36.4032h-36.4032v-36.4032z m36.394667 0h36.4032v36.4032h-36.4032v-36.4032z m145.399467 0h36.4032v36.4032h-36.4032v-36.4032z m36.4032 0h36.394666v36.4032h-36.394666v-36.4032z m36.283733 0h36.4032v36.4032h-36.4032v-36.4032z m36.4032 0h36.4032v36.4032h-36.4032v-36.4032z m36.3008 0h36.4032v36.4032h-36.4032v-36.4032z m72.797867 0h36.4032v36.4032h-36.4032v-36.4032z m36.3008 0h36.4032v36.4032h-36.4032v-36.4032zM55.594667 827.298133h36.4032v36.4032H55.594667v-36.4032z m72.797866 0h36.4032v36.4032h-36.4032v-36.4032z m36.3008 0h36.4032v36.4032H164.693333v-36.4032z m36.4032 0h36.4032v36.4032h-36.4032v-36.4032z m72.686934 0h36.4032v36.4032h-36.4032v-36.4032z m181.802666 0h36.4032v36.4032h-36.4032v-36.4032z m109.098667 0h36.4032v36.4032h-36.4032v-36.4032z m72.695467 0h36.4032v36.4032h-36.4032v-36.4032z m36.4032 0h36.394666v36.4032h-36.394666v-36.4032z m36.283733 0h36.4032v36.4032h-36.4032v-36.4032z m109.098667 0h36.4032v36.4032h-36.4032v-36.4032z m36.4032 0h36.4032v36.4032h-36.4032v-36.4032z m36.3008 0h36.4032v36.4032h-36.4032v-36.4032z m36.394666 0h36.4032v36.4032h-36.4032v-36.4032zM55.594667 863.701333h36.4032v36.4032H55.594667v-36.4032z m72.797866 0h36.4032v36.4032h-36.4032v-36.4032z m36.3008 0h36.4032v36.4032H164.693333v-36.4032z m36.4032 0h36.4032v36.4032h-36.4032v-36.4032z m72.686934 0h36.4032v36.4032h-36.4032v-36.4032z m145.399466 0h36.4032v36.4032h-36.4032v-36.4032z m36.4032 0h36.4032v36.4032h-36.4032v-36.4032z m36.394667 0h36.4032v36.4032h-36.4032v-36.4032z m36.3008 0h36.4032v36.4032h-36.4032v-36.4032z m36.4032 0h36.4032v36.4032h-36.4032v-36.4032z m36.292267 0h36.4032v36.4032h-36.4032v-36.4032z m72.8064 0h36.394666v36.4032h-36.394666v-36.4032z m36.283733 0h36.4032v36.4032h-36.4032v-36.4032z m36.4032 0h36.4032v36.4032h-36.4032v-36.4032z m145.399467 0h36.4032v36.4032h-36.4032v-36.4032z m-836.2752 36.3008h36.4032v36.4032H55.594667v-36.4032z m218.1888 0h36.4032v36.4032h-36.4032v-36.4032z m72.704 0h36.4032v36.4032h-36.4032v-36.4032z m145.493333 0h36.4032v36.4032h-36.4032v-36.4032z m181.802667 0h36.394666v36.4032h-36.394666v-36.4032z m72.686933 0h36.4032v36.4032h-36.4032v-36.4032z m36.3008 0h36.4032v36.4032h-36.4032v-36.4032z m36.394667 0h36.4032v36.4032h-36.4032v-36.4032z m36.4032 0h36.4032v36.4032h-36.4032v-36.4032z m36.3008 0h36.4032v36.4032h-36.4032v-36.4032z m-836.2752 36.394667h36.4032V972.8H55.594667v-36.4032z m36.4032 0h36.4032V972.8h-36.4032v-36.4032z m36.394666 0h36.4032V972.8h-36.4032v-36.4032z m36.3008 0h36.4032V972.8H164.693333v-36.4032z m36.4032 0h36.4032V972.8h-36.4032v-36.4032z m36.292267 0h36.394667V972.8h-36.394667v-36.4032z m36.394667 0h36.4032V972.8h-36.4032v-36.4032z m72.704 0h36.4032V972.8h-36.4032v-36.4032z m36.394666 0h36.4032V972.8h-36.4032v-36.4032z m36.3008 0h36.4032V972.8h-36.4032v-36.4032z m36.4032 0h36.4032V972.8h-36.4032v-36.4032z m36.394667 0h36.4032V972.8h-36.4032v-36.4032z m72.704 0h36.4032V972.8h-36.4032v-36.4032z m36.292267 0h36.4032V972.8h-36.4032v-36.4032z m72.8064 0h36.394666V972.8h-36.394666v-36.4032z m181.7856 0h36.4032V972.8h-36.4032v-36.4032z m36.3008 0h36.4032V972.8h-36.4032v-36.4032z m36.394666 0h36.4032V972.8h-36.4032v-36.4032z m0 0" p-id="19560"></path></svg>