<?xml version="1.0" encoding="utf-8"?>
<svg version="1.1" xmlns:xlink="http://www.w3.org/1999/xlink" width="19px" height="12px" xmlns="http://www.w3.org/2000/svg">
  <g transform="matrix(1 0 0 1 -6 -5 )">
    <path d="M 13.8588235294118 10.8679245283019  C 13.8588235294118 11.5018867924528  13.3670588235294 12  12.7411764705882 12  L 11.1764705882353 12  C 10.5505882352941 12  10.0588235294118 11.5018867924528  10.0588235294118 10.8679245283019  L 10.0588235294118 3.62264150943396  C 10.0588235294118 2.98867924528302  10.5505882352941 2.49056603773585  11.1764705882353 2.49056603773585  L 12.7411764705882 2.49056603773585  C 13.3670588235294 2.49056603773585  13.8588235294118 2.98867924528302  13.8588235294118 3.62264150943396  L 13.8588235294118 10.8679245283019  Z M 17.8823529411765 12  L 16.3176470588235 12  C 15.6917647058823 12  15.2 11.5018867924528  15.2 10.8679245283019  L 15.2 1.13207547169811  C 15.2 0.498113207547167  15.6917647058823 0  16.3176470588235 0  L 17.8823529411765 0  C 18.5082352941177 0  19 0.498113207547167  19 1.13207547169811  L 19 10.8679245283019  C 19 11.5018867924528  18.5082352941177 12  17.8823529411765 12  Z M 3.8 7.92452830188679  L 3.8 10.8679245283019  C 3.8 11.5018867924528  3.30823529411765 12  2.68235294117647 12  L 1.11764705882353 12  C 0.491764705882354 12  0 11.5018867924528  0 10.8679245283019  L 0 7.92452830188679  C 0 7.29056603773585  0.491764705882354 6.79245283018868  1.11764705882353 6.79245283018868  L 2.68235294117647 6.79245283018868  C 3.30823529411765 6.79245283018868  3.8 7.29056603773585  3.8 7.92452830188679  Z M 8.94117647058824 6.33962264150943  L 8.94117647058824 10.8679245283019  C 8.94117647058824 11.5018867924528  8.44941176470588 12  7.82352941176471 12  L 6.25882352941176 12  C 5.63294117647059 12  5.14117647058823 11.5018867924528  5.14117647058823 10.8679245283019  L 5.14117647058823 6.33962264150943  C 5.14117647058823 5.70566037735849  5.63294117647059 5.20754716981132  6.25882352941176 5.20754716981132  L 7.82352941176471 5.20754716981132  C 8.44941176470588 5.20754716981132  8.94117647058824 5.70566037735849  8.94117647058824 6.33962264150943  Z " fill-rule="nonzero" fill="#ffffff" stroke="none" transform="matrix(1 0 0 1 6 5 )" />
  </g>
</svg>