<?xml version="1.0" encoding="utf-8"?>
<svg version="1.1" xmlns:xlink="http://www.w3.org/1999/xlink" width="234px" height="269px" xmlns="http://www.w3.org/2000/svg">
  <g transform="matrix(1 0 0 1 -75 -107 )">
    <path d="M 75 107  L 309 107  L 309 376  L 75 376  L 75 107  " fill-rule="nonzero" fill="#cccccc" stroke="none" />
    <path d="M 91 123  L 293 123  L 293 360  L 91 360  L 91 123  " fill-rule="nonzero" fill="#ffffff" stroke="none" />
    <path d="M 214.23 182.45  C 204.402 182.45  196.68 174.728  196.68 164.9  C 196.68 155.072  204.402 147.35  214.23 147.35  C 224.058 147.35  231.78 155.072  231.78 164.9  C 231.78 174.728  224.058 182.45  214.23 182.45  " fill-rule="nonzero" fill="#cccccc" stroke="none" />
    <path d="M 97 354  L 97 230.25  L 144.5 174  L 211 219  L 249 207.75  L 287 219  L 287 354  L 97 354  " fill-rule="nonzero" fill="#169bd5" stroke="none" />
  </g>
</svg>