<svg t="1592299600780" class="icon" viewBox="0 0 1024 1024" version="1.1" xmlns="http://www.w3.org/2000/svg" p-id="22735" width="32" height="32"><path d="M123.245227 512.416427z m-99.403094 0c0 54.89664 44.506453 99.406507 99.403094 99.406506s99.403093-44.506453 99.403093-99.406506S178.141867 413.013333 123.245227 413.013333 23.842133 457.516373 23.842133 512.416427M512 512.416427z m-99.403093 0c0 54.89664 44.506453 99.406507 99.403093 99.406506 54.900053 0 99.403093-44.506453 99.403093-99.406506S566.900053 413.013333 512 413.013333c-54.89664 0-99.403093 44.50304-99.403093 99.403094M900.754773 512.416427z m-99.403093 0c0 54.89664 44.50304 99.406507 99.39968 99.406506 54.900053 0 99.403093-44.506453 99.403093-99.406506S955.654827 413.013333 900.754773 413.013333c-54.89664 0-99.403093 44.50304-99.403093 99.403094" p-id="22736"></path></svg>