<?xml version="1.0" encoding="utf-8"?>
<svg version="1.1" xmlns:xlink="http://www.w3.org/1999/xlink" width="82px" height="82px" xmlns="http://www.w3.org/2000/svg">
  <g transform="matrix(1 0 0 1 -279 -174 )">
    <path d="M 320 174  C 342.96 174  361 192.04  361 215  C 361 237.96  342.96 256  320 256  C 297.04 256  279 237.96  279 215  C 279 192.04  297.04 174  320 174  Z " fill-rule="nonzero" fill="#f2f2f2" stroke="none" />
    <path d="M 320 174.5  C 342.68 174.5  360.5 192.32  360.5 215  C 360.5 237.68  342.68 255.5  320 255.5  C 297.32 255.5  279.5 237.68  279.5 215  C 279.5 192.32  297.32 174.5  320 174.5  Z " stroke-width="1" stroke="#797979" fill="none" />
  </g>
</svg>