<svg t="1592272475767" class="icon" viewBox="0 0 1024 1024" version="1.1" xmlns="http://www.w3.org/2000/svg" p-id="21996" width="128" height="128"><path d="M512 1002.212766C240.748936 1002.212766 21.787234 783.251064 21.787234 512S240.748936 21.787234 512 21.787234 1002.212766 240.748936 1002.212766 512 783.251064 1002.212766 512 1002.212766z m-196.085106-336.612766v42.485106h392.170212v-42.485106h-392.170212z m204.8-42.485106l117.651063-159.046809h-74.076595v-148.153191h-88.238298v148.153191h-74.076596l118.740426 159.046809zM512 1002.212766C240.748936 1002.212766 21.787234 783.251064 21.787234 512S240.748936 21.787234 512 21.787234 1002.212766 240.748936 1002.212766 512 783.251064 1002.212766 512 1002.212766z m-196.085106-336.612766v42.485106h392.170212v-42.485106h-392.170212z m204.8-42.485106l117.651063-159.046809h-74.076595v-148.153191h-88.238298v148.153191h-74.076596l118.740426 159.046809z" fill="#07C210" p-id="21997"></path></svg>