<?xml version="1.0" encoding="utf-8"?>
<svg version="1.1" xmlns:xlink="http://www.w3.org/1999/xlink" width="10px" height="10px" xmlns="http://www.w3.org/2000/svg">
  <g transform="matrix(1 0 0 1 -298 -6 )">
    <path d="M 9.53867991483322 0  C 9.66643009226402 0  9.77288857345635 0.0449810606060595  9.85805535841022 0.134943181818182  C 9.92902767920511 0.201231060606059  9.97279394369529 0.282907196969696  9.98935415188076 0.379971590909091  C 10.0059143600662 0.477035984848484  9.99053702389401 0.570549242424242  9.94322214336408 0.660511363636363  L 5.40099361249113 9.75142045454546  C 5.32055831559026 9.91714015151515  5.18571090607996 10  4.99645138396026 10  C 4.97279394369529 10  4.93730778329785 9.99526515151515  4.88999290276792 9.98579545454546  C 4.78590016560208 9.96212121212121  4.70191625266146 9.90885416666666  4.63804116394606 9.82599431818182  C 4.57416607523066 9.74313446969697  4.54222853087296 9.64962121212121  4.6 9.54545454545454  L 4.6 5.4  L 0.454222853087296 5.4  C 0.350130115921456 5.45454545454545  0.256683226874853 5.42258522727273  0.17388218594748 5.35866477272727  C 0.0910811450201095 5.29474431818182  0.0378519044239425 5.21070075757576  0.0141944641589788 5.10653409090909  C -0.00946297610598492 5.00236742424243  0 4.90293560606061  0.0425833924769336 4.80823863636364  C 0.0851667849538671 4.71354166666667  0.153773361722261 4.64251893939394  0.248403122782116 4.59517045454545  L 9.33286018452803 0.0497159090909094  C 9.39436952921694 0.0165719696969688  9.46297610598533 0  9.53867991483322 0  Z M 9.29148332150461 1.10397727272727  C 9.27823515495623 1.02632575757576  9.24322214336408 0.960984848484848  9.18644428672818 0.907954545454546  C 9.11831085876508 0.835984848484848  9.03314407381121 0.8  8.93094393186657 0.8  C 8.87038088478827 0.8  8.81549562337355 0.813257575757575  8.76628814762242 0.839772727272727  L 1.49872249822569 4.47613636363636  C 1.42301868937781 4.51401515151515  1.36813342796309 4.57083333333333  1.33406671398155 4.64659090909091  C 1.3 4.72234848484848  1.29242961911521 4.80189393939394  1.31135557132718 4.88522727272727  C 1.33028152353915 4.96856060606061  1.37286491601609 5.03579545454545  1.43910574875798 5.08693181818182  C 1.50534658149988 5.13806818181818  1.58010409273716 5.16363636363636  1.66337828246984 5.1  L 5 5.1  L 5 8.43636363636364  C 4.93378282469837 8.51969696969697  4.95933286018453 8.59450757575758  5.01043293115685 8.66079545454546  C 5.06153300212917 8.72708333333333  5.12872013248166 8.76969696969697  5.21199432221434 8.78863636363636  C 5.24984622663828 8.79621212121212  5.27823515495623 8.8  5.2971611071682 8.8  C 5.44856872486397 8.8  5.5564466524722 8.73371212121212  5.6207948899929 8.60113636363636  L 9.25457771469127 1.32840909090909  C 9.29242961911521 1.25643939393939  9.30473148805299 1.18162878787879  9.29148332150461 1.10397727272727  Z " fill-rule="nonzero" fill="#ffffff" stroke="none" transform="matrix(1 0 0 1 298 6 )" />
  </g>
</svg>