<?xml version="1.0" encoding="utf-8"?>
<svg version="1.1" xmlns:xlink="http://www.w3.org/1999/xlink" width="12px" height="12px" viewBox="539 348  12 12" xmlns="http://www.w3.org/2000/svg">
  <path d="M 545 348  C 548.36 348  551 350.64  551 354  C 551 357.36  548.36 360  545 360  C 541.64 360  539 357.36  539 354  C 539 350.64  541.64 348  545 348  Z " fill-rule="nonzero" fill="#ffffff" stroke="none" />
  <path d="M 545 348.5  C 548.08 348.5  550.5 350.92  550.5 354  C 550.5 357.08  548.08 359.5  545 359.5  C 541.92 359.5  539.5 357.08  539.5 354  C 539.5 350.92  541.92 348.5  545 348.5  Z " stroke-width="1" stroke="#797979" fill="none" />
  <path d="M 545 357  C 543.32 357  542 355.68  542 354  C 542 352.32  543.32 351  545 351  C 546.68 351  548 352.32  548 354  C 548 355.68  546.68 357  545 357  " fill-rule="nonzero" fill="#797979" stroke="none" />
</svg>