<?xml version="1.0" encoding="utf-8"?>
<svg version="1.1" xmlns:xlink="http://www.w3.org/1999/xlink" width="373px" height="174px" xmlns="http://www.w3.org/2000/svg">
  <g transform="matrix(1 0 0 1 -1 -84 )">
    <path d="M 1 84  L 374 84  L 374 258  L 1 258  L 1 84  " fill-rule="nonzero" fill="#cccccc" stroke="none" />
    <path d="M 13 96  L 362 96  L 362 246  L 13 246  L 13 96  " fill-rule="nonzero" fill="#ffffff" stroke="none" />
    <path d="M 208.01 136.2  C 200.702 136.2  194.96 130.458  194.96 123.15  C 194.96 115.842  200.702 110.1  208.01 110.1  C 215.318 110.1  221.06 115.842  221.06 123.15  C 221.06 130.458  215.318 136.2  208.01 136.2  " fill-rule="nonzero" fill="#cccccc" stroke="none" />
    <path d="M 18 242  L 18 164.45  L 103 129.2  L 222 202.535120643432  L 290 150.35  L 358 202.535120643432  L 358 242  L 18 242  " fill-rule="nonzero" fill="#169bd5" stroke="none" />
  </g>
</svg>