<svg t="1592538798406" class="icon" viewBox="0 0 1024 1024" version="1.1" xmlns="http://www.w3.org/2000/svg" p-id="30512" width="48" height="48"><path d="M512.08 963.335c-247.992 0-449.026-202.07-449.026-451.336 0-249.264 201.034-451.334 449.025-451.334s449.032 202.07 449.032 451.334c0 249.265-201.04 451.336-449.032 451.336z m0-846.253c-216.99 0-392.898 176.808-392.898 394.917s175.907 394.918 392.897 394.918c216.995 0 392.903-176.808 392.903-394.918S729.074 117.082 512.079 117.082z m12.95 576.57c-1.448 4.163-3.549 8.109-6.967 11.328-11.309 10.659-29.072 10.074-39.666-1.29l-128.31-118.947c-10.597-11.371-10.02-29.22 1.293-39.872 11.31-10.65 29.071-10.067 39.668 1.297l100.416 93.088 179.48-312.468c7.751-13.487 24.915-18.11 38.338-10.325 13.418 7.797 18.018 25.042 10.269 38.54L525.029 693.651z" fill="#e6e6e6" p-id="30513"></path></svg>