<?xml version="1.0" encoding="utf-8"?>
<svg version="1.1" xmlns:xlink="http://www.w3.org/1999/xlink" width="137px" height="10px" preserveAspectRatio="xMinYMid meet" viewBox="498 510  137 8" xmlns="http://www.w3.org/2000/svg">
  <path d="M 498 514  L 625 514  A 5 5 0 0 1 630 519 L 630 633  A 5 5 0 0 0 635 638 L 957 638  A 5 5 0 0 0 962 633 L 962 492  A 5 5 0 0 1 967 487 L 1030 487  " stroke-width="2" stroke="#3333ff" fill="none" />
  <path d="M 1024.89289321881 482.707106781187  L 1029.18578643763 487  L 1024.89289321881 491.292893218813  L 1026.30710678119 492.707106781187  L 1031.30710678119 487.707106781187  L 1032.01421356237 487  L 1031.30710678119 486.292893218813  L 1026.30710678119 481.292893218813  L 1024.89289321881 482.707106781187  Z " fill-rule="nonzero" fill="#3333ff" stroke="none" />
</svg>