<svg t="1591346164587" class="icon" viewBox="0 0 2784 1024" version="1.1" xmlns="http://www.w3.org/2000/svg" p-id="18444" width="64" height="64"><path d="M432 512c0 35.343 28.657 64 64 64s64-28.657 64-64-28.657-64-64-64-64 28.657-64 64z m200.003 0c0 57.441 46.56 104.003 104.002 104.003S840.008 569.44 840.008 512c0-57.436-46.562-104.003-104.003-104.003S632.003 454.564 632.003 512zM912 512c0 35.343 28.657 64 64 64s64-28.657 64-64-28.657-64-64-64-64 28.657-64 64z m472.003-217.6h16v436.803h-16V294.4zM2073.6 240c-150.4 0-272 121.6-272 272s121.6 272 272 272 272-121.6 272-272-121.6-272-272-272z m0 480c-115.2 0-208-92.8-208-208s92.8-208 208-208 208 92.8 208 208-92.8 208-208 208z" fill="#ffffff" p-id="18445"></path><path d="M1969.603 512c0 57.441 46.56 104.003 104.002 104.003S2177.608 569.44 2177.608 512c0-57.436-46.562-104.003-104.003-104.003S1969.603 454.564 1969.603 512z" fill="#ffffff" p-id="18446"></path></svg>