<?xml version="1.0" encoding="utf-8"?>
<svg version="1.1" xmlns:xlink="http://www.w3.org/1999/xlink" width="371px" height="10px" preserveAspectRatio="xMinYMid meet" viewBox="4214 2114  371 8" xmlns="http://www.w3.org/2000/svg">
  <path d="M 4998 2544  L 4585 2544  A 5 5 0 0 1 4580 2539 L 4580 2123  A 5 5 0 0 0 4575 2118 L 4224 2118  A 5 5 0 0 0 4219 2123 L 4219 2225.5  A 2.5 2.5 0 0 1 4216.5 2228 L 4214 2228  " stroke-width="2" stroke="#3333ff" fill="none" />
  <path d="M 4992.89289321881 2539.70710678119  L 4997.18578643763 2544  L 4992.89289321881 2548.29289321881  L 4994.30710678119 2549.70710678119  L 4999.30710678119 2544.70710678119  L 5000.01421356237 2544  L 4999.30710678119 2543.29289321881  L 4994.30710678119 2538.29289321881  L 4992.89289321881 2539.70710678119  Z " fill-rule="nonzero" fill="#3333ff" stroke="none" />
</svg>