<?xml version="1.0" encoding="utf-8"?>
<svg version="1.1" xmlns:xlink="http://www.w3.org/1999/xlink" width="20px" height="20px" preserveAspectRatio="xMinYMid meet" viewBox="5761 3141  20 18" xmlns="http://www.w3.org/2000/svg">
  <path d="M 5771 3150  L 5771 3053  A 5 5 0 0 0 5766 3048 L 5205 3048  A 5 5 0 0 1 5200 3043 L 5200 2665  A 5 5 0 0 0 5195 2660 L 5057 2660  A 5 5 0 0 1 5052 2655 L 5052 2650  " stroke-width="2" stroke="#3333ff" fill="none" />
  <path d="M 5775.29289321881 3144.89289321881  L 5771 3149.18578643763  L 5766.70710678119 3144.89289321881  L 5765.29289321881 3146.30710678119  L 5770.29289321881 3151.30710678119  L 5771 3152.01421356237  L 5771.70710678119 3151.30710678119  L 5776.70710678119 3146.30710678119  L 5775.29289321881 3144.89289321881  Z " fill-rule="nonzero" fill="#3333ff" stroke="none" />
</svg>