<svg t="1591355427558" class="icon" viewBox="0 0 1024 1024" version="1.1" xmlns="http://www.w3.org/2000/svg" p-id="20360" width="32" height="32"><path d="M384 537.6h252.342857v32.914286h-252.342857zM384 632.685714h252.342857v32.914286h-252.342857z" fill="#5EB4D3" p-id="20361"></path><path d="M512 0C230.4 0 0 230.4 0 512s230.4 512 512 512 512-230.4 512-512S793.6 0 512 0z m318.171429 475.428571c0 7.314286-3.657143 14.628571-10.971429 21.942858-7.314286 7.314286-14.628571 10.971429-21.942857 10.971428h-62.171429v318.171429c0 18.285714-14.628571 25.6-29.257143 18.285714l-95.085714-43.885714-80.457143 54.857143H512l-80.457143-54.857143-109.714286 43.885714c-14.628571 7.314286-29.257143-3.657143-29.257142-21.942857v-318.171429H226.742857c-18.285714 0-32.914286-14.628571-32.914286-32.914285V347.428571c0-18.285714 14.628571-32.914286 32.914286-32.914285h570.514286c18.285714 0 32.914286 14.628571 32.914286 32.914285V475.428571z" fill="#5EB4D3" p-id="20362"></path><path d="M735.085714 380.342857H288.914286c-18.285714 0-32.914286 14.628571-32.914286 32.914286v32.914286c0 18.285714 14.628571 32.914286 32.914286 32.914285v-32.914285c0-18.285714 14.628571-32.914286 32.914285-32.914286h380.342858c18.285714 0 32.914286 14.628571 32.914285 32.914286v29.257142c7.314286 0 14.628571-3.657143 21.942857-10.971428 7.314286-7.314286 10.971429-14.628571 10.971429-21.942857v-32.914286c0-7.314286-3.657143-14.628571-10.971429-21.942857-7.314286-3.657143-14.628571-7.314286-21.942857-7.314286z" fill="#5EB4D3" p-id="20363"></path></svg>