<?xml version="1.0" encoding="utf-8"?>
<svg version="1.1" xmlns:xlink="http://www.w3.org/1999/xlink" width="7px" height="7px" xmlns="http://www.w3.org/2000/svg">
  <g transform="matrix(1 0 0 1 -502 -1312 )">
    <path d="M 6.76909722222222 3.1923828125  C 6.92303240740741 3.27897135416667  7 3.38151041666667  7 3.5  C 7 3.61848958333333  6.92303240740741 3.72102864583333  6.76909722222222 3.8076171875  L 1.32465277777778 6.8701171875  C 1.17071759259259 6.95670572916667  0.988425925925926 7  0.777777777777778 7  C 0.56712962962963 7  0.384837962962963 6.95670572916667  0.230902777777778 6.8701171875  C 0.0769675925925926 6.78352864583333  0 6.68098958333333  0 6.5625  L 0 0.4375  C 0 0.319010416666666  0.0769675925925926 0.216471354166666  0.230902777777778 0.1298828125  C 0.384837962962963 0.0432942708333328  0.56712962962963 0  0.777777777777778 0  C 0.988425925925926 0  1.17071759259259 0.0432942708333328  1.32465277777778 0.1298828125  L 6.76909722222222 3.1923828125  Z " fill-rule="nonzero" fill="#f98c0b" stroke="none" transform="matrix(1 0 0 1 502 1312 )" />
  </g>
</svg>